<svg width="0" height="0" class="hidden">
  <symbol version="1.0" xmlns="http://www.w3.org/2000/svg" preserveAspectRatio="xMidYMid meet" viewBox="0 0 300.000000 300.000000" id="icon-word">
    <g transform="translate(0.000000,300.000000) scale(0.100000,-0.100000)" stroke="none">
      <path d="M1440 2489 c-132 -15 -306 -73 -317 -105 -6 -18 28 -46 46 -38 112 48 262 80 406 87 40 2 51 6 53 21 9 44 -36 52 -188 35z m164 -24 c7 -20 0 -22 -114 -30 -101 -6 -167 -20 -265 -53 -61 -21 -89 -16 -66 12 14 16 154 64 226 75 28 5 87 9 131 10 65 1 83 -2 88 -14z"></path>
      <path d="M1791 2447 c-14 -17 -6 -43 16 -51 22 -9 45 13 41 38 -4 25 -40 33 -57 13z"></path>
      <path d="M2000 2365 c-19 -23 -7 -38 66 -81 46 -26 107 -77 182 -152 111 -112 134 -125 148 -87 8 19 -80 130 -149 189 -75 63 -198 146 -218 146 -9 0 -22 -7 -29 -15z m128 -57 c89 -62 212 -179 236 -225 32 -64 -6 -44 -102 55 -53 54 -130 120 -169 146 -69 45 -92 76 -57 76 9 0 50 -24 92 -52z"></path>
      <path d="M940 2286 c-27 -33 18 -72 48 -42 13 13 14 20 6 34 -15 23 -38 26 -54 8z"></path>
      <path d="M756 2108 c-20 -23 -36 -46 -36 -52 1 -6 14 6 31 27 44 53 83 46 46 -8 -33 -48 -49 -75 -44 -75 6 0 87 105 87 113 0 9 -30 37 -40 37 -5 0 -25 -19 -44 -42z"></path>
      <path d="M1315 2097 c-42 -42 -62 -108 -81 -267 -8 -69 -19 -152 -24 -185 -6 -33 -10 -64 -10 -70 0 -5 -10 6 -21 25 -12 19 -45 60 -73 90 -28 30 -61 68 -72 83 -18 26 -24 28 -59 21 -49 -9 -107 -61 -139 -126 -14 -28 -27 -45 -30 -37 -2 8 -16 55 -31 106 -15 51 -30 121 -35 156 -9 73 -25 108 -72 158 -38 40 -86 53 -143 38 -23 -7 -37 -17 -40 -32 -8 -31 37 -274 83 -452 22 -82 47 -211 56 -285 23 -183 42 -252 75 -273 14 -9 41 -28 60 -42 19 -14 38 -25 43 -25 34 0 108 138 153 285 27 90 75 208 81 202 2 -2 13 -57 24 -123 30 -176 52 -232 119 -298 62 -61 104 -77 121 -45 6 10 17 19 25 19 8 0 15 4 15 9 0 5 6 16 14 24 43 42 144 743 134 922 -6 91 -20 128 -55 144 -45 20 -83 13 -118 -22z m78 2 c12 -7 23 -13 25 -14 1 -1 -5 -19 -13 -39 -14 -33 -41 -175 -50 -265 -9 -91 -18 -142 -37 -216 -13 -54 -22 -135 -28 -250 -7 -172 -11 -196 -38 -227 -37 -44 -99 0 -131 93 -27 79 -73 299 -66 319 3 11 -1 20 -10 24 -8 3 -15 11 -15 19 0 7 -12 24 -26 36 -26 22 -27 23 -38 5 -6 -11 -18 -47 -27 -82 -9 -34 -22 -69 -29 -77 -7 -8 -10 -15 -6 -15 4 0 -1 -15 -11 -32 -9 -18 -18 -39 -19 -46 -3 -19 -74 -182 -97 -224 -26 -48 -60 -51 -82 -8 -20 38 -41 143 -50 245 -9 103 -29 212 -49 258 -22 55 -44 146 -67 285 -29 180 -31 165 21 174 37 6 47 4 66 -13 22 -21 49 -93 40 -108 -3 -5 1 -23 10 -40 9 -18 18 -60 21 -94 19 -263 44 -455 59 -468 17 -14 37 -2 30 17 -7 19 48 224 75 277 73 143 130 168 185 84 31 -47 67 -164 60 -193 -4 -16 -2 -26 8 -30 17 -6 28 -42 15 -50 -13 -8 -11 -24 4 -24 7 0 21 -18 31 -40 10 -22 22 -40 27 -40 18 0 39 69 39 129 0 33 6 109 14 168 8 59 17 142 21 183 11 132 52 256 92 279 23 13 20 13 46 0z m61 -79 l7 -35 -20 22 c-11 14 -17 31 -14 44 7 27 19 13 27 -31z m6 -89 l0 -26 -30 31 c-21 21 -29 36 -24 48 6 16 9 15 30 -5 13 -12 24 -34 24 -48z m-753 -8 c-10 -10 -16 0 -22 38 l-6 34 17 -32 c10 -18 14 -36 11 -40z m730 -25 c13 -12 23 -32 23 -45 l0 -24 -35 28 c-34 27 -47 63 -23 63 6 0 22 -10 35 -22z m-708 -53 l10 -40 -19 25 c-11 14 -20 36 -20 50 0 33 16 14 29 -35z m704 -27 c19 -27 23 -42 19 -80 -2 -27 -8 -48 -12 -48 -18 0 -70 53 -70 71 0 23 10 24 36 4 24 -18 34 -19 34 -1 0 8 -9 17 -19 21 -27 8 -44 32 -37 50 8 23 23 18 49 -17z m-680 -69 c3 -10 1 -19 -3 -19 -12 0 -40 41 -40 59 0 20 36 -13 43 -40z m14 -75 c-9 -9 -47 30 -47 48 0 7 12 0 27 -14 15 -15 24 -31 20 -34z m639 5 c26 -16 34 -28 34 -49 0 -27 -1 -28 -29 -19 -27 10 -51 44 -51 74 0 20 6 19 46 -6z m-616 -86 c0 -17 -11 -16 -38 3 -15 10 -22 25 -22 47 l1 32 29 -35 c16 -19 30 -41 30 -47z m387 -36 c8 -16 13 -30 11 -32 -2 -2 -22 14 -45 35 -26 25 -44 51 -48 72 l-6 33 36 -40 c20 -22 43 -53 52 -68z m223 38 c41 -26 48 -39 30 -50 -12 -8 -78 44 -79 63 -1 17 4 16 49 -13z m-615 -45 c10 -16 -3 -29 -25 -23 -13 4 -20 14 -20 30 0 20 3 22 19 13 11 -5 23 -15 26 -20z m611 -17 c32 -34 44 -63 27 -63 -10 0 -83 80 -83 91 0 19 24 7 56 -28z m-197 -60 c1 -20 -15 -15 -48 13 -17 14 -31 35 -31 46 0 18 4 17 39 -13 22 -19 40 -40 40 -46z m-205 52 c3 -8 12 -15 21 -15 14 0 14 -3 -1 -25 -19 -29 -24 -30 -48 -12 -14 10 -15 18 -7 40 12 30 26 35 35 12z m-226 -56 c-12 -35 -13 -34 -21 7 -5 28 -4 31 13 27 16 -4 17 -9 8 -34z m610 5 c12 -19 27 -32 32 -29 6 3 10 -1 10 -9 0 -23 -16 -20 -58 11 -20 15 -38 28 -40 29 -1 0 0 9 4 18 10 25 27 19 52 -20z m-401 -35 c12 -12 6 -49 -7 -49 -16 0 -39 31 -34 45 7 18 26 19 41 4z m398 -30 c37 -33 46 -59 19 -59 -20 0 -86 68 -79 81 10 15 23 10 60 -22z m-422 -41 c6 -8 7 -23 4 -32 -5 -14 -11 -15 -27 -6 -11 6 -20 19 -20 29 0 34 24 39 43 9z m446 -55 c1 -1 0 -7 -4 -13 -4 -7 -19 -3 -46 12 -28 16 -39 28 -39 45 0 24 0 24 43 -9 23 -18 44 -34 46 -35z m-476 -7 c30 -23 21 -58 -13 -49 -22 6 -32 26 -24 48 7 18 14 18 37 1z m417 -21 c7 -8 21 -15 31 -15 20 0 24 -16 10 -39 -7 -12 -15 -8 -40 17 -30 30 -40 52 -22 52 5 0 14 -7 21 -15z m-437 -53 c20 -18 23 -42 3 -42 -14 0 -46 41 -46 60 0 12 15 6 43 -18z m466 -54 c1 -10 -5 -18 -13 -18 -18 0 -46 38 -46 63 0 17 2 17 29 -5 17 -13 30 -31 30 -40z m-491 2 c25 -33 27 -40 10 -40 -19 0 -48 31 -48 52 0 26 13 22 38 -12z m480 -57 c2 -1 0 -9 -6 -18 -8 -15 -12 -14 -31 13 -30 43 -27 60 7 31 15 -13 29 -25 30 -26z m-501 5 c25 -24 30 -38 11 -38 -16 0 -48 31 -48 47 0 19 10 16 37 -9z m469 -67 c-11 -17 -24 -13 -36 9 -17 31 -1 46 22 22 11 -11 17 -25 14 -31z m-494 22 c10 -9 18 -22 18 -30 0 -11 -4 -11 -22 -2 -27 14 -39 30 -32 41 8 12 15 10 36 -9z m458 -55 c0 -15 -27 -8 -44 11 -13 15 -14 20 -4 24 14 5 48 -20 48 -35z m-485 12 c18 -20 17 -20 -7 -20 -17 0 -27 7 -31 20 -3 12 0 20 7 20 7 0 21 -9 31 -20z"></path>
      <path d="M606 1849 c-17 -42 -15 -66 2 -32 11 22 24 73 18 73 -2 0 -11 -19 -20 -41z"></path>
      <path d="M630 1751 c-6 -22 -15 -43 -20 -46 -6 -3 -10 -11 -10 -17 0 -7 4 -7 13 1 15 12 41 90 33 98 -2 3 -10 -13 -16 -36z"></path>
      <path d="M2447 1884 c-13 -14 -7 -43 12 -53 24 -13 55 8 50 35 -4 19 -48 32 -62 18z"></path>
      <path d="M2512 1664 c-5 -9 -5 -39 1 -72 10 -64 3 -271 -11 -318 -12 -37 1 -64 29 -64 27 0 36 30 51 158 11 104 2 272 -17 302 -10 16 -43 12 -53 -6z m56 -79 c21 -161 -9 -387 -46 -342 -8 10 -9 30 -1 73 5 32 9 118 7 189 -2 125 4 167 23 148 5 -5 12 -36 17 -68z"></path>
      <path d="M535 1510 c-12 -19 6 -50 28 -50 21 1 21 2 4 14 -10 8 -15 20 -11 30 7 17 -11 22 -21 6z"></path>
      <path d="M556 1282 c-15 -46 65 -254 148 -381 47 -73 71 -87 96 -56 11 13 7 25 -25 70 -20 30 -39 55 -42 55 -2 0 9 -24 27 -54 29 -52 29 -72 -2 -61 -29 11 -133 200 -167 304 -25 77 -26 99 -4 123 15 17 15 18 -5 18 -11 0 -23 -8 -26 -18z"></path>
      <path d="M2043 1227 l6 -73 -45 -13 c-90 -27 -150 -121 -95 -151 31 -16 93 -12 129 10 25 15 32 17 32 5 0 -15 18 -30 27 -21 3 3 -3 75 -13 161 -14 118 -22 155 -33 155 -11 0 -13 -14 -8 -73z m7 -135 c0 -29 -28 -60 -66 -72 -30 -10 -39 -10 -51 3 -11 10 -12 20 -6 32 26 46 123 75 123 37z"></path>
      <path d="M2187 1242 c-40 -27 -56 -53 -57 -89 0 -46 22 -63 85 -63 30 0 57 -5 60 -11 4 -5 -12 -28 -35 -50 -34 -33 -38 -40 -24 -46 26 -10 96 69 92 105 -3 26 -6 27 -68 30 -74 3 -85 10 -76 47 5 19 19 31 52 46 39 16 44 22 34 34 -16 20 -29 19 -63 -3z"></path>
      <path d="M1544 1161 c-44 -27 -64 -59 -64 -103 0 -95 117 -103 176 -13 18 28 15 95 -6 120 -17 21 -69 19 -106 -4z m86 -26 c39 -47 -60 -153 -104 -110 -25 25 -19 45 24 87 44 41 61 46 80 23z"></path>
      <path d="M1780 1148 c-11 -18 -20 -39 -20 -45 0 -25 -15 -12 -32 27 -18 42 -38 53 -38 20 0 -25 46 -129 67 -152 32 -35 42 -22 40 51 -2 80 10 104 43 83 27 -17 40 -15 40 6 0 26 -20 42 -52 42 -21 0 -33 -8 -48 -32z"></path>
      <path d="M2432 1058 c-19 -19 -14 -46 9 -53 30 -10 58 19 43 43 -14 22 -36 26 -52 10z"></path>
      <path d="M2260 814 c-86 -88 -148 -137 -237 -186 -74 -40 -89 -62 -59 -87 28 -24 191 76 310 190 85 80 105 111 86 134 -7 8 -18 15 -24 15 -6 0 -41 -30 -76 -66z m83 40 c36 -36 -272 -294 -351 -294 -44 0 -23 22 73 76 55 31 129 91 195 158 65 66 71 71 83 60z"></path>
      <path d="M901 726 c-19 -23 -4 -56 25 -56 28 0 42 25 27 49 -14 22 -37 25 -52 7z"></path>
      <path d="M1092 608 c-22 -22 -13 -47 26 -67 108 -55 326 -107 417 -99 33 2 41 7 43 27 5 31 -12 41 -73 41 -102 1 -230 35 -390 106 -6 2 -16 -1 -23 -8z m81 -33 c49 -21 141 -49 202 -61 11 -2 31 -6 45 -9 14 -2 47 -6 73 -7 44 -2 78 -20 64 -35 -9 -8 -130 -4 -181 7 -168 34 -290 89 -271 120 8 13 4 14 68 -15z"></path>
      <path d="M1747 523 c-22 -21 0 -63 33 -63 18 0 32 40 19 56 -12 15 -41 19 -52 7z"></path>
    </g>
  </symbol>
  <symbol version="1.0" xmlns="http://www.w3.org/2000/svg" preserveAspectRatio="xMidYMid meet" viewBox="0 0 300.000000 300.000000" id="icon-sentence">
    <g transform="translate(0.000000,300.000000) scale(0.100000,-0.100000)" stroke="none">
      <path d="M1345 2509 c-65 -9 -214 -53 -257 -75 -31 -16 -38 -51 -12 -61 9 -3 50 6 92 20 120 41 159 49 276 56 86 5 111 10 119 23 8 12 7 21 -2 32 -15 18 -110 20 -216 5z m193 -19 c7 -19 -14 -27 -81 -29 -111 -3 -236 -28 -313 -63 -25 -12 -58 -7 -57 7 0 26 157 78 292 95 77 10 154 5 159 -10z"></path>
      <path d="M1730 2475 c-20 -25 -8 -50 25 -50 21 0 31 5 33 18 4 21 -14 47 -33 47 -7 0 -18 -7 -25 -15z"></path>
      <path d="M623 2429 c-66 -13 -110 -38 -153 -87 -59 -66 -65 -100 -34 -186 14 -39 27 -82 31 -96 3 -14 39 -57 80 -96 69 -65 86 -75 197 -119 118 -47 184 -87 185 -113 1 -20 -61 -52 -103 -52 -21 0 -100 20 -175 46 -166 55 -215 63 -260 39 -28 -14 -32 -20 -27 -43 3 -15 8 -44 11 -64 6 -51 28 -81 85 -118 132 -85 327 -111 447 -59 25 10 54 17 66 14 17 -5 35 7 81 53 32 32 64 69 72 83 27 48 10 219 -29 297 -25 49 -63 73 -200 123 -107 39 -217 90 -217 100 0 4 10 20 23 35 20 23 31 26 87 28 63 1 68 -1 143 -52 123 -82 151 -80 163 10 6 42 3 53 -24 95 -17 27 -44 60 -59 75 -77 74 -256 114 -390 87z m173 -30 c79 -15 157 -54 200 -101 39 -43 41 -50 17 -69 -13 -11 -17 -11 -20 -1 -3 6 -11 12 -18 12 -8 0 -30 11 -49 23 -59 41 -118 52 -195 38 -80 -16 -151 -47 -151 -68 0 -25 37 -79 73 -105 48 -37 80 -52 227 -103 74 -26 145 -53 157 -61 29 -19 57 -115 49 -173 -9 -64 -65 -161 -112 -193 -21 -15 -57 -30 -79 -34 -50 -8 -263 -6 -278 3 -5 3 -28 8 -51 10 -112 10 -219 125 -161 173 19 16 102 8 165 -15 205 -77 268 -89 325 -63 28 13 68 70 73 105 7 53 -100 127 -265 184 -166 58 -201 85 -241 192 -28 75 -28 91 3 143 29 50 71 78 146 98 67 18 108 19 185 5z m8 -135 c9 -25 0 -29 -31 -14 -26 12 -27 13 -8 21 29 11 32 11 39 -7z m-71 -8 c10 -8 14 -17 9 -20 -15 -9 -42 4 -42 20 0 17 10 17 33 0z m137 -1 c17 -9 32 -16 35 -16 23 -3 45 -13 45 -20 0 -5 6 -9 14 -9 8 0 18 -5 22 -12 5 -8 2 -9 -9 -5 -25 9 -21 -8 6 -26 12 -9 17 -16 10 -16 -13 -1 -77 57 -79 71 -3 21 -6 22 -12 6 -7 -17 -9 -16 -40 2 -17 11 -32 24 -32 30 0 13 6 13 40 -5z m-194 -9 c19 -20 18 -38 -3 -34 -10 2 -19 13 -21 26 -4 25 3 28 24 8z m-33 -46 c10 -16 14 -30 9 -30 -11 0 -27 18 -35 43 -10 28 7 20 26 -13z m407 -19 c0 -11 3 -26 6 -35 3 -9 1 -16 -5 -16 -6 0 -11 6 -11 14 0 8 -7 17 -16 20 -13 5 -14 9 -4 21 17 21 30 19 30 -4z m-409 -233 c19 -24 25 -48 11 -48 -8 0 -16 14 -40 63 -8 16 11 6 29 -15z m65 -33 c28 -59 3 -56 -28 3 -14 26 -14 32 -3 32 8 0 22 -16 31 -35z m57 -13 c3 -9 8 -25 12 -34 4 -11 3 -18 -4 -18 -8 0 -41 60 -41 76 0 11 29 -10 33 -24z m62 -32 c21 -41 19 -47 -10 -20 -25 24 -33 50 -15 50 5 0 16 -13 25 -30z m68 -38 c12 -19 14 -32 8 -32 -7 0 -15 8 -18 18 -4 9 -12 21 -20 25 -7 4 -13 13 -13 18 0 20 25 3 43 -29z m213 -169 c-3 -7 -10 -13 -16 -13 -11 0 -14 53 -3 64 9 9 25 -34 19 -51z m-30 -49 c-6 -16 -8 -16 -16 -4 -6 8 -10 24 -10 35 0 18 1 18 16 3 10 -10 14 -23 10 -34z m-33 -18 c6 -16 -11 -36 -30 -36 -14 0 -16 10 -7 34 8 20 30 21 37 2z m-514 -50 c24 -28 -6 -17 -41 15 l-33 31 31 -15 c17 -9 36 -23 43 -31z m80 -22 c8 -19 8 -24 -3 -24 -8 0 -16 9 -19 20 -3 11 -11 19 -17 18 -7 -2 -14 2 -17 8 -8 23 45 2 56 -22z m332 16 c10 -6 19 -15 19 -20 0 -14 -34 -12 -48 2 -26 26 -7 37 29 18z m-278 -26 c32 -43 10 -41 -27 4 -14 16 -16 22 -5 22 8 0 22 -12 32 -26z m108 -32 c-18 -6 -41 18 -41 42 1 19 3 19 27 -9 16 -18 21 -31 14 -33z m49 41 c22 -19 27 -43 8 -43 -16 0 -48 31 -48 47 0 18 16 16 40 -4z m66 0 c17 -23 17 -33 2 -33 -7 0 -21 12 -31 25 -17 23 -17 25 -1 25 9 0 23 -8 30 -17z"></path>
      <path d="M1937 2393 c-21 -20 -1 -44 70 -89 81 -51 222 -177 250 -225 19 -32 36 -41 58 -33 28 11 15 50 -39 115 -112 134 -305 267 -339 232z m126 -62 c122 -82 247 -208 247 -247 0 -28 -22 -12 -113 80 -50 51 -119 111 -152 132 -77 49 -96 65 -89 75 11 18 36 8 107 -40z"></path>
      <path d="M2393 1913 c-19 -7 -16 -53 3 -60 18 -7 45 6 51 24 4 11 -23 44 -35 42 -4 0 -13 -3 -19 -6z"></path>
      <path d="M536 1860 c-18 -45 -21 -70 -7 -54 12 12 34 84 28 90 -2 3 -12 -13 -21 -36z"></path>
      <path d="M595 1860 c-10 -16 -24 -70 -19 -70 8 0 36 72 31 77 -3 2 -8 -1 -12 -7z"></path>
      <path d="M2446 1691 c-4 -6 -1 -51 5 -101 11 -86 4 -212 -17 -312 -7 -32 27 -58 51 -38 20 17 35 125 34 256 0 165 -7 198 -41 202 -14 2 -29 -1 -32 -7z m51 -38 c5 -16 8 -93 8 -173 -1 -152 -13 -220 -42 -220 -13 0 -14 8 -7 53 4 28 9 120 10 202 0 83 2 153 3 158 3 17 21 5 28 -20z"></path>
      <path d="M1554 1575 c-3 -14 -4 -32 0 -40 4 -12 -3 -15 -29 -15 -42 0 -46 -17 -7 -26 49 -11 52 -13 53 -46 2 -51 13 -83 32 -86 21 -4 21 5 2 51 -23 55 -20 65 22 69 52 4 56 28 5 28 -43 0 -52 10 -52 61 0 36 -17 38 -26 4z"></path>
      <path d="M1180 1510 c-29 -29 -28 -99 3 -128 29 -27 98 -30 118 -5 13 15 10 16 -32 10 -33 -4 -52 -2 -65 8 -18 14 -18 14 2 15 46 0 83 77 52 108 -18 18 -56 14 -78 -8z m64 -16 c8 -21 8 -20 -10 -38 -8 -9 -22 -16 -30 -16 -20 0 -18 47 4 59 24 14 29 13 36 -5z"></path>
      <path d="M1711 1511 c-15 -15 -21 -34 -21 -66 0 -61 28 -87 89 -83 26 2 46 9 49 16 3 10 -6 13 -34 12 -82 -5 -96 5 -41 30 37 17 57 61 41 88 -16 25 -59 27 -83 3z m57 -13 c16 -16 15 -23 -4 -42 -23 -23 -44 -20 -44 7 0 21 16 47 30 47 3 0 11 -5 18 -12z"></path>
      <path d="M2045 1505 c-31 -30 -33 -82 -4 -119 27 -34 62 -34 89 1 25 32 10 45 -20 18 -30 -27 -55 -16 -58 28 -4 47 13 70 45 62 28 -7 31 10 4 25 -27 14 -29 13 -56 -15z"></path>
      <path d="M2184 1509 c-29 -32 -26 -105 5 -130 33 -27 121 -24 121 3 0 6 -16 8 -37 6 -21 -3 -49 -1 -63 4 l-25 10 35 11 c45 16 68 55 52 91 -15 33 -60 35 -88 5z m61 -29 c0 -29 -29 -50 -46 -33 -9 9 -8 18 5 38 20 31 41 28 41 -5z"></path>
      <path d="M1377 1459 l-24 -31 -7 27 c-5 18 -10 25 -17 18 -12 -12 20 -104 38 -110 6 -2 14 12 18 36 13 75 52 79 64 5 7 -43 31 -59 31 -21 0 56 -33 107 -69 107 -5 0 -21 -14 -34 -31z"></path>
      <path d="M1906 1460 l-25 -31 -7 26 c-4 17 -10 23 -16 17 -11 -11 6 -76 25 -99 14 -19 27 -16 27 6 0 32 21 81 36 81 17 0 34 -31 34 -64 0 -26 15 -43 25 -27 9 16 -13 95 -31 108 -27 19 -40 16 -68 -17z"></path>
      <path d="M499 1314 c-29 -35 57 -266 150 -403 42 -62 57 -71 79 -49 19 19 15 34 -22 85 -51 73 -103 183 -131 280 -30 101 -47 121 -76 87z m61 -79 c24 -86 73 -200 120 -275 62 -100 47 -126 -20 -37 -75 100 -160 307 -151 370 0 5 8 7 17 5 11 -2 23 -24 34 -63z"></path>
      <path d="M2367 1083 c-13 -12 -7 -51 9 -57 21 -8 20 -8 38 10 12 12 13 20 6 35 -10 19 -40 26 -53 12z"></path>
      <path d="M2207 846 c-55 -64 -189 -167 -264 -204 -41 -20 -53 -31 -53 -49 0 -38 28 -39 97 -4 84 44 174 114 256 199 60 62 67 74 57 92 -18 33 -43 23 -93 -34z m73 18 c0 -9 -19 -38 -42 -63 -42 -46 -177 -160 -190 -161 -4 0 -27 -14 -53 -31 -44 -30 -75 -35 -82 -13 -2 5 16 21 39 34 80 44 172 115 238 182 66 68 90 82 90 52z"></path>
      <path d="M837 754 c-15 -16 -7 -53 14 -59 30 -10 58 19 43 43 -12 18 -45 28 -57 16z"></path>
      <path d="M1021 626 c-7 -9 -11 -22 -8 -30 24 -61 458 -168 496 -122 7 8 10 24 6 36 -5 16 -15 20 -49 20 -77 0 -216 30 -310 66 -124 48 -121 47 -135 30z m90 -30 c76 -33 210 -66 302 -73 66 -5 77 -9 77 -24 0 -16 -8 -19 -50 -19 -104 0 -338 62 -387 102 -15 12 -17 38 -4 38 5 0 33 -11 62 -24z"></path>
      <path d="M1677 536 c-11 -28 4 -47 32 -44 20 2 26 8 26 28 0 20 -6 26 -26 28 -17 2 -29 -3 -32 -12z"></path>
    </g>
  </symbol>
  <symbol id="icon-logo" version="1.0" xmlns="http://www.w3.org/2000/svg" viewBox="0 0 900.000000 282.000000" preserveAspectRatio="xMidYMid meet">
    <g transform="translate(0.000000,282.000000) scale(0.100000,-0.100000)" stroke="none">
      <path d="M5520 2375 c-19 -7 -47 -14 -62 -14 -14 -1 -41 -9 -59 -18 -43 -23 -129 -112 -129 -133 0 -9 -5 -21 -12 -28 -13 -13 -34 -80 -48 -152 -4 -25 -13 -56 -18 -70 -6 -14 -13 -38 -17 -53 -5 -25 -8 -27 -22 -15 -9 7 -22 27 -30 43 -7 17 -23 44 -33 60 -11 17 -23 38 -26 48 -4 9 -10 17 -14 17 -5 0 -12 9 -15 21 -9 28 -185 204 -214 214 -12 4 -42 20 -66 36 -41 28 -48 29 -173 31 -127 3 -131 2 -157 -22 l-27 -25 5 -220 c3 -121 11 -353 17 -515 6 -162 12 -440 15 -617 2 -178 6 -331 10 -342 3 -10 21 -29 40 -42 19 -13 36 -30 40 -39 11 -31 32 -60 57 -80 31 -24 100 -27 118 -5 7 8 20 15 29 15 30 0 87 63 106 118 18 49 18 60 5 185 -14 129 -21 777 -9 777 6 0 49 -56 49 -64 0 -9 64 -101 84 -121 33 -33 73 -55 99 -55 14 0 30 -7 37 -15 7 -8 18 -15 24 -15 6 0 26 -13 44 -30 50 -46 73 -40 147 36 36 37 69 81 74 98 21 67 40 111 48 111 4 0 11 -191 14 -425 5 -330 9 -435 20 -468 26 -74 165 -192 229 -192 31 0 108 39 136 70 42 44 54 99 53 230 -1 113 4 150 22 150 17 0 9 24 -16 50 -23 24 -25 30 -14 54 10 20 10 29 1 38 -8 8 -12 65 -13 178 0 91 -4 188 -10 215 -5 28 -13 185 -19 350 -5 165 -14 318 -20 340 -5 22 -10 56 -10 76 0 20 -7 42 -15 49 -8 7 -15 17 -15 22 0 18 -96 137 -115 142 -55 13 -113 14 -145 1z m120 -70 c23 -24 24 -31 23 -163 -1 -75 -6 -156 -11 -179 -6 -24 -6 -74 -1 -120 4 -43 8 -109 9 -148 0 -38 7 -95 15 -125 16 -59 18 -133 6 -165 -6 -14 -2 -28 14 -46 19 -24 22 -39 23 -140 1 -63 5 -129 8 -147 4 -20 1 -43 -7 -58 -11 -22 -10 -30 5 -59 13 -23 16 -43 12 -62 -4 -15 -9 -73 -12 -128 -3 -61 -11 -114 -21 -137 l-16 -38 -65 0 c-53 0 -68 4 -88 23 l-24 22 0 311 c0 170 -4 368 -10 440 -17 215 -19 345 -8 417 16 111 -11 225 -55 227 -4 0 -12 -10 -17 -22 -6 -13 -21 -41 -35 -63 -17 -29 -24 -55 -25 -93 0 -58 -17 -104 -62 -166 -15 -21 -28 -46 -28 -55 0 -8 -6 -33 -14 -56 -8 -22 -20 -60 -27 -85 -21 -74 -41 -90 -118 -90 -59 0 -71 4 -118 36 -33 22 -60 51 -73 77 -12 23 -25 49 -30 57 -5 8 -11 22 -14 30 -3 8 -10 22 -15 30 -9 15 -60 125 -85 185 -28 66 -39 102 -43 142 -3 23 -14 51 -25 63 -18 19 -22 20 -41 7 -14 -10 -21 -23 -19 -38 2 -13 2 -58 0 -99 -7 -171 -2 -360 10 -372 7 -7 12 -30 12 -53 0 -23 7 -50 15 -61 17 -22 21 -145 5 -174 -20 -38 -28 -159 -21 -325 10 -227 8 -245 -34 -274 -26 -17 -41 -21 -68 -16 -69 13 -68 9 -73 355 -2 171 -8 366 -13 433 -13 156 -26 846 -17 882 l7 28 112 -7 c94 -6 118 -11 149 -31 50 -33 88 -76 88 -100 0 -11 7 -29 15 -39 8 -11 15 -33 15 -48 0 -34 43 -125 89 -188 17 -23 31 -50 31 -60 0 -9 7 -25 15 -36 8 -10 15 -28 15 -39 0 -11 7 -29 15 -39 8 -11 15 -31 15 -45 0 -25 33 -91 46 -91 3 0 14 5 25 10 15 8 19 21 19 58 0 39 6 54 30 80 17 18 30 41 30 51 0 10 7 24 15 31 8 7 15 23 15 35 0 12 6 28 14 34 7 6 16 34 20 61 4 27 11 52 16 55 6 3 10 20 10 37 0 16 6 42 14 56 7 15 23 47 35 72 11 25 29 54 38 66 23 27 97 64 127 64 13 0 39 7 57 15 49 21 72 18 99 -10z m114 -119 c3 -13 9 -32 12 -41 5 -13 2 -16 -17 -13 -20 2 -25 10 -27 41 -4 43 22 54 32 13z m-744 -135 c11 -22 16 -42 11 -46 -12 -7 -82 65 -75 76 13 22 45 7 64 -30z m754 14 c18 -28 22 -95 5 -95 -24 0 -59 45 -59 76 0 51 27 61 54 19z m-816 -53 c2 -7 -3 -12 -12 -12 -9 0 -16 7 -16 16 0 17 22 14 28 -4z m117 -58 c27 -18 34 -54 11 -54 -8 0 -29 12 -46 26 -24 20 -28 29 -18 35 18 12 25 11 53 -7z m683 -24 c24 -22 32 -38 32 -63 0 -19 -3 -37 -6 -40 -12 -11 -84 72 -84 96 0 45 14 47 58 7z m-300 -46 c-5 -42 -28 -43 -28 -1 0 18 3 37 7 41 12 12 25 -11 21 -40z m-359 -35 c34 -34 40 -59 14 -59 -20 0 -83 58 -83 77 0 23 38 14 69 -18z m664 -63 c25 -22 37 -42 37 -60 0 -47 -40 -29 -82 36 -40 62 -12 77 45 24z m-305 -20 c5 -41 -11 -52 -37 -25 -32 35 -26 63 14 57 14 -2 21 -12 23 -32z m-685 -71 c36 -43 37 -70 1 -61 -36 9 -63 44 -64 82 0 38 12 51 25 28 5 -9 22 -32 38 -49z m327 49 c0 -17 -22 -14 -28 4 -2 7 3 12 12 12 9 0 16 -7 16 -16z m310 -52 c0 -5 11 -14 25 -20 31 -14 33 -47 4 -63 -17 -9 -25 -7 -45 12 -26 25 -39 54 -29 69 7 12 45 13 45 2z m351 -25 c42 -37 64 -73 49 -82 -10 -6 -50 15 -50 27 0 4 -13 20 -30 35 -31 27 -40 53 -17 53 6 -1 28 -15 48 -33z m-991 -102 c18 -36 31 -68 27 -71 -3 -4 -17 -4 -30 -1 -27 7 -57 63 -57 107 0 49 24 35 60 -35z m619 5 c18 -22 29 -45 26 -50 -10 -16 -36 -12 -52 8 -34 42 -44 62 -38 72 12 19 32 10 64 -30z m392 -27 c29 -21 39 -35 39 -55 0 -40 -23 -35 -59 11 -28 35 -41 71 -25 71 3 0 23 -12 45 -27z m-423 -63 c18 -32 20 -44 12 -60 -15 -27 -21 -25 -47 13 -31 45 -30 87 1 87 6 0 21 -18 34 -40z m454 -80 c4 0 8 -16 8 -35 0 -19 -4 -35 -9 -35 -14 0 -81 85 -81 102 0 28 13 27 43 -2 17 -17 34 -30 39 -30z m-1024 31 c15 -9 13 -53 -3 -57 -14 -4 -48 44 -40 56 8 12 25 13 43 1z m531 -51 c9 -26 8 -30 -8 -30 -22 0 -41 19 -41 42 0 31 37 22 49 -12z m-56 -49 c22 -49 22 -51 -9 -51 -19 0 -28 8 -40 35 -8 20 -12 40 -9 45 13 22 41 8 58 -29z m-470 -42 c6 -9 7 -25 3 -35 -7 -18 -9 -18 -27 5 -10 13 -19 30 -19 38 0 19 30 13 43 -8z m997 -1 c0 -5 11 -19 25 -30 39 -31 30 -83 -10 -54 -19 14 -47 85 -39 98 7 10 24 0 24 -14z m-990 -160 c0 -39 -15 -43 -39 -9 -21 29 -28 71 -14 85 12 11 52 -47 53 -76z m1033 4 c18 -16 23 -57 8 -67 -13 -7 -84 81 -76 95 7 11 37 -1 68 -28z m-1052 -86 c15 -10 19 -20 15 -32 -6 -16 -9 -15 -31 9 -14 14 -25 31 -25 37 0 5 -4 10 -10 10 -5 0 -10 8 -10 17 0 14 3 14 20 -4 10 -12 29 -28 41 -37z m1050 -48 c21 -26 24 -44 9 -53 -11 -7 -59 43 -60 63 0 20 30 14 51 -10z m-1080 -10 c10 -13 18 -31 19 -40 0 -9 7 -21 17 -26 10 -6 14 -16 9 -27 -5 -15 -12 -11 -46 24 -25 26 -40 50 -40 66 0 31 16 32 41 3z m1080 -90 c20 -25 25 -63 9 -73 -5 -3 -19 -1 -30 5 -15 8 -20 21 -20 50 0 45 13 51 41 18z m-1042 -81 c25 -46 25 -80 0 -85 -17 -3 -59 72 -59 107 0 37 33 25 59 -22z m1061 -99 c0 -51 -19 -49 -50 6 -20 38 -22 47 -10 61 12 14 15 14 37 -6 16 -16 23 -34 23 -61z m-1083 -25 c3 -10 15 -25 26 -34 23 -19 17 -52 -9 -47 -18 3 -66 82 -57 92 12 12 34 6 40 -11z m1074 -116 c-11 -29 -30 -34 -62 -17 -15 8 -19 21 -19 59 0 26 3 51 7 55 4 4 24 -11 45 -32 35 -34 38 -41 29 -65z m-1093 13 c43 -58 15 -85 -32 -29 -27 32 -31 41 -19 52 13 14 30 6 51 -23z m-48 -73 c0 -4 -10 -2 -21 5 -17 10 -23 10 -26 1 -6 -15 -33 -17 -33 -3 0 6 6 10 14 10 7 0 16 10 20 23 l6 22 20 -25 c11 -14 20 -28 20 -33z m1058 20 c12 -11 22 -26 22 -34 0 -17 -25 -17 -42 1 -8 7 -24 17 -36 20 -26 9 -28 22 -5 35 19 10 28 7 61 -22z m-109 -2 c13 -14 21 -29 17 -32 -10 -10 -76 28 -76 44 0 21 33 15 59 -12z" />
      <path d="M401 2348 c-43 -19 -91 -62 -91 -80 0 -5 -7 -17 -16 -25 -9 -10 -13 -25 -10 -37 3 -12 6 -33 6 -47 0 -47 134 -159 191 -159 8 0 24 -7 35 -15 10 -8 40 -15 65 -15 25 0 59 -5 76 -10 16 -6 81 -14 144 -18 l114 -7 -3 -320 c-2 -176 -8 -369 -13 -430 -5 -60 -9 -210 -9 -333 l0 -224 35 -53 c37 -55 93 -105 118 -105 8 0 20 -7 27 -15 7 -8 21 -15 31 -15 10 0 22 -8 28 -17 9 -17 11 -17 39 0 17 9 41 17 55 17 27 0 57 36 57 69 0 11 5 23 10 26 6 4 8 16 4 28 -10 30 -6 122 8 180 9 36 9 50 0 59 -15 15 -16 100 -1 115 8 8 7 17 -5 34 -13 19 -16 52 -16 183 0 87 -5 199 -12 248 -9 70 -9 94 0 109 10 16 10 24 -3 42 -12 17 -15 55 -15 189 0 168 8 218 34 218 7 0 19 7 26 15 16 19 95 19 175 0 82 -19 245 -20 271 0 10 8 29 15 41 15 31 0 83 69 83 110 0 37 -18 72 -76 150 -23 31 -43 64 -45 75 -3 11 -14 21 -26 23 -12 2 -27 10 -33 18 -15 17 -93 19 -123 2 -47 -26 -215 -44 -266 -30 -127 36 -191 41 -526 46 -326 5 -342 4 -384 -16z m509 -46 c174 -5 305 -13 320 -20 14 -6 54 -16 89 -22 71 -13 175 -3 285 28 l59 16 29 -34 c20 -24 27 -41 23 -55 -4 -11 -10 -33 -14 -50 -5 -23 -14 -31 -41 -36 -23 -5 -41 -3 -54 7 -26 18 -92 18 -231 -1 -60 -8 -138 -15 -172 -15 -99 0 -103 -7 -102 -187 0 -82 4 -179 9 -218 6 -38 14 -158 20 -265 5 -107 14 -240 19 -295 6 -55 10 -183 11 -283 0 -156 -3 -189 -17 -215 -33 -59 -43 -67 -92 -67 -38 0 -53 6 -80 30 -32 29 -33 33 -27 88 5 48 17 744 20 1164 1 64 4 120 9 124 9 10 -1 102 -15 132 -9 17 -20 22 -52 22 -23 -1 -52 -7 -66 -15 -14 -8 -44 -14 -67 -15 -23 0 -66 -5 -95 -11 -39 -9 -73 -9 -138 1 -124 17 -190 57 -190 114 0 35 40 76 74 76 12 0 28 5 36 10 9 6 45 8 85 5 39 -3 203 -9 365 -13z m886 -139 c7 -10 14 -25 14 -34 0 -24 -47 -12 -54 14 -10 38 16 51 40 20z m-23 -82 c9 -20 17 -41 17 -44 0 -14 -26 -6 -54 16 -25 20 -27 26 -17 45 17 32 34 27 54 -17z m-193 -73 c0 -21 -25 -24 -37 -4 -4 7 -18 18 -30 25 -27 14 -40 50 -22 62 17 10 89 -57 89 -83z m-686 57 c27 -25 36 -65 14 -65 -16 0 -78 61 -78 77 0 21 35 15 64 -12z m758 6 c35 -10 48 -19 52 -37 4 -14 4 -29 1 -34 -9 -15 -65 -12 -65 3 -1 16 -35 57 -49 57 -6 0 -11 7 -11 16 0 8 6 14 13 12 6 -2 33 -10 59 -17z m-841 -27 c25 -22 24 -44 -1 -44 -11 0 -20 5 -20 10 0 6 -6 10 -12 10 -20 0 -35 13 -42 37 -7 21 -5 21 25 13 17 -5 40 -17 50 -26z m405 11 c4 -8 16 -15 29 -15 50 0 61 -62 13 -68 -20 -2 -36 6 -63 32 -37 38 -43 51 -22 59 23 10 38 7 43 -8z m158 -6 c32 -25 34 -49 4 -49 -26 1 -61 26 -71 53 -9 25 33 23 67 -4z m-777 -13 c12 -13 20 -25 17 -28 -7 -7 -84 32 -84 43 0 18 46 8 67 -15z m83 13 c0 -7 8 -18 18 -25 14 -11 14 -13 2 -13 -19 0 -50 23 -50 38 0 6 7 11 15 11 8 0 15 -5 15 -11z m780 -9 c0 -11 5 -20 12 -20 6 0 9 -3 6 -6 -4 -3 -16 -1 -27 6 -24 12 -28 40 -6 40 8 0 15 -9 15 -20z m-259 -92 c19 -24 26 -93 9 -103 -11 -7 -38 32 -50 75 -15 53 7 68 41 28z m5 -163 c15 -28 16 -37 5 -47 -10 -11 -16 -9 -32 11 -22 27 -26 71 -6 71 8 0 22 -16 33 -35z m-5 -115 c20 -11 26 -54 9 -65 -17 -11 -50 15 -50 39 0 36 10 42 41 26z m19 -181 c0 -35 -16 -46 -29 -20 -18 34 -14 60 9 54 14 -4 20 -14 20 -34z m-2 -132 c2 -19 -1 -27 -12 -27 -11 0 -16 10 -16 31 0 38 24 35 28 -4z m22 -171 l0 -31 -25 30 c-25 30 -31 56 -18 69 13 13 43 -35 43 -68z m10 -130 c0 -17 -4 -37 -9 -45 -7 -11 -13 -5 -25 24 -9 20 -16 48 -16 61 0 24 1 24 25 8 18 -12 25 -25 25 -48z m-2 -155 c3 -37 1 -42 -15 -39 -19 3 -30 46 -19 75 11 28 31 7 34 -36z m0 -144 c2 -28 -1 -37 -12 -37 -18 0 -31 42 -22 66 10 27 31 9 34 -29z m-16 -84 c21 -19 24 -63 5 -63 -14 0 -37 40 -37 65 0 19 9 19 32 -2z m-7 -112 c4 -15 1 -30 -9 -39 -13 -13 -17 -11 -35 19 -21 34 -26 60 -15 72 11 10 52 -27 59 -52z m-85 -21 c22 -22 27 -50 8 -50 -16 0 -58 41 -58 57 0 19 27 16 50 -7z" />
      <path d="M2250 1323 l-22 -28 28 -21 c29 -24 60 -20 78 9 8 12 5 22 -14 42 -30 32 -43 32 -70 -2z" />
      <path d="M1485 1190 c-10 -17 6 -153 22 -190 41 -89 51 -105 97 -151 33 -33 57 -49 75 -49 53 0 55 -6 52 -170 -2 -125 0 -156 13 -176 9 -13 23 -24 31 -24 33 0 45 69 61 360 7 130 -10 375 -28 386 -5 3 -18 -2 -29 -12 -17 -15 -19 -31 -19 -151 l0 -133 -39 0 c-23 0 -48 8 -63 20 -29 22 -78 119 -78 154 0 13 -7 37 -15 52 -8 16 -15 39 -15 51 0 31 -50 57 -65 33z" />
      <path d="M7414 1192 c-32 -21 -40 -123 -18 -215 l7 -29 -103 3 c-85 2 -105 0 -113 -13 -6 -8 -8 -22 -4 -30 7 -21 90 -48 143 -48 23 0 55 -7 71 -17 25 -14 31 -27 46 -98 9 -46 17 -108 17 -138 0 -89 45 -166 98 -167 43 0 46 82 6 163 -8 16 -14 35 -14 43 0 8 -6 25 -14 37 -8 12 -18 50 -22 85 l-7 62 94 0 c111 0 162 19 167 61 4 36 -18 52 -52 39 -15 -5 -62 -10 -105 -10 -73 0 -78 2 -97 28 -25 35 -58 164 -50 196 11 45 -16 71 -50 48z" />
      <path d="M1915 1149 c-37 -41 -37 -43 -33 -108 3 -37 10 -75 16 -86 11 -19 25 -74 41 -160 4 -22 13 -50 19 -62 7 -12 12 -33 12 -46 0 -14 7 -30 15 -37 8 -7 15 -19 15 -26 0 -25 42 -93 61 -99 62 -20 76 31 29 102 -16 24 -30 47 -30 50 0 4 -6 14 -14 22 -7 9 -18 30 -23 47 -14 39 -1 63 53 103 47 33 82 76 113 138 58 116 -12 203 -165 203 -71 0 -72 0 -109 -41z m173 -40 c37 -13 44 -28 36 -79 -10 -64 -106 -148 -143 -126 -13 9 -31 72 -31 113 0 81 58 120 138 92z" />
      <path d="M2292 1137 c-32 -34 -30 -131 5 -312 11 -57 33 -85 65 -85 38 0 54 31 40 79 -17 58 -33 132 -42 191 -4 30 -11 69 -15 85 -18 76 -20 78 -53 42z" />
      <path d="M3040 1145 c-14 -8 -32 -17 -40 -20 -35 -14 -63 -35 -95 -71 -32 -36 -35 -44 -35 -102 0 -49 5 -69 22 -92 21 -29 25 -30 104 -30 60 0 85 4 94 15 7 8 19 15 27 15 7 0 16 7 19 15 4 8 16 15 28 15 16 0 27 -12 44 -49 12 -27 22 -59 22 -72 0 -13 7 -46 15 -73 9 -29 15 -87 15 -140 -1 -82 -3 -95 -28 -130 -49 -71 -70 -81 -174 -78 -95 2 -110 -4 -101 -39 3 -12 18 -21 40 -25 53 -10 195 4 213 21 9 8 22 15 28 15 6 0 26 19 45 42 43 55 63 135 53 215 -5 32 -11 83 -15 113 -4 30 -12 65 -19 77 -7 12 -12 35 -12 50 0 16 -7 38 -15 49 -8 10 -15 30 -15 44 0 14 -7 36 -15 50 -8 14 -14 37 -15 51 0 14 -7 34 -15 45 -8 10 -15 29 -15 42 0 38 -34 62 -87 61 -27 0 -59 -7 -73 -14z m85 -89 c14 -22 15 -28 1 -60 -19 -46 -80 -102 -119 -110 -46 -9 -77 16 -77 61 0 31 8 44 46 79 62 59 123 71 149 30z" />
      <path d="M6946 1085 c-3 -8 -13 -15 -22 -15 -19 0 -98 -61 -129 -100 -91 -112 -65 -233 59 -274 49 -17 66 -18 129 -9 60 8 75 8 89 -5 15 -13 16 -18 4 -41 -16 -30 -100 -112 -134 -130 -37 -20 -22 -71 20 -71 71 0 230 199 214 266 -4 14 -15 33 -26 44 -18 18 -34 20 -153 20 -151 0 -167 7 -167 71 0 40 51 102 91 112 60 14 116 40 127 58 12 18 9 24 -24 55 -40 36 -68 43 -78 19z" />
      <path d="M2633 1074 c-36 -15 -93 -86 -93 -116 0 -10 -6 -18 -14 -18 -15 0 -20 10 -31 67 -9 46 -27 57 -56 34 -22 -18 -23 -20 -8 -57 23 -56 49 -139 49 -155 0 -17 63 -89 77 -89 26 0 43 38 43 98 0 90 41 172 86 172 35 0 58 -40 72 -126 20 -121 21 -122 42 -129 37 -12 43 3 37 93 -4 47 -11 90 -17 96 -5 5 -10 19 -10 29 0 34 -40 87 -77 102 -42 18 -58 18 -100 -1z" />
      <path d="M6410 990 c-8 -5 -23 -10 -33 -10 -22 0 -37 -11 -99 -74 -26 -26 -48 -54 -48 -61 0 -7 -7 -15 -15 -19 -8 -3 -15 -16 -15 -28 0 -13 -7 -32 -15 -42 -21 -28 -21 -189 0 -206 8 -7 15 -18 15 -25 0 -8 15 -23 34 -34 43 -27 195 -31 216 -6 7 8 18 15 24 15 6 0 24 14 40 30 34 35 76 41 76 10 0 -22 30 -92 45 -102 35 -26 69 21 54 72 -27 85 -39 156 -39 226 0 50 -5 89 -15 108 -8 15 -15 34 -15 42 0 27 -74 89 -123 102 -56 14 -67 15 -87 2z m99 -106 c30 -39 30 -187 0 -238 -36 -61 -79 -86 -153 -88 -88 -3 -96 5 -96 102 0 57 4 81 15 90 8 7 15 19 15 27 0 8 22 36 48 62 73 73 136 90 171 45z" />
      <path d="M7965 986 c-69 -19 -127 -84 -146 -166 -4 -19 -12 -54 -18 -77 -9 -34 -8 -52 4 -85 8 -24 15 -52 15 -64 0 -25 95 -124 119 -124 9 0 25 -7 35 -15 14 -10 45 -15 103 -15 68 0 92 4 138 26 52 25 56 29 53 58 -3 30 -5 31 -56 34 -36 2 -62 -2 -78 -12 -59 -40 -230 -4 -222 46 3 18 11 22 55 24 28 1 64 10 80 20 39 24 103 96 103 115 0 8 7 24 15 35 19 25 19 88 0 104 -8 7 -15 20 -15 29 0 22 -36 53 -80 68 -40 15 -50 14 -105 -1z m100 -102 c14 -15 25 -37 25 -50 0 -58 -73 -125 -137 -127 -43 -1 -48 6 -47 62 4 107 101 177 159 115z" />
      <path d="M8567 877 c-46 -45 -71 -89 -82 -144 -8 -42 -33 -43 -42 -3 -3 17 -10 33 -14 36 -5 3 -9 13 -9 22 0 24 -37 94 -54 104 -35 19 -68 -32 -46 -72 5 -10 10 -29 10 -42 0 -13 7 -32 15 -42 8 -11 15 -30 15 -42 0 -12 7 -27 15 -34 8 -7 15 -21 15 -31 0 -10 4 -20 9 -23 5 -4 19 -25 30 -49 29 -59 85 -117 113 -117 13 0 32 10 42 22 17 19 17 25 6 52 -8 17 -15 77 -17 136 -4 101 -3 106 22 133 31 32 59 35 82 7 25 -29 76 -27 92 3 25 48 -52 127 -123 127 -27 0 -44 -10 -79 -43z" />
    </g>
</symbol>
</svg>