<?xml version="1.0" standalone="no"?>
<!DOCTYPE svg PUBLIC "-//W3C//DTD SVG 20010904//EN"
 "http://www.w3.org/TR/2001/REC-SVG-20010904/DTD/svg10.dtd">
<svg version="1.0" xmlns="http://www.w3.org/2000/svg"
 width="300.000000pt" height="94.000000pt" viewBox="0 0 300.000000 94.000000"
 preserveAspectRatio="xMidYMid meet">
<metadata>
Created by potrace 1.10, written by Peter Selinger 2001-2011
</metadata>
<g transform="translate(0.000000,94.000000) scale(0.100000,-0.100000)"
fill="#000000" stroke="none">
<path d="M1815 786 c-41 -18 -54 -36 -74 -103 l-17 -57 -27 46 c-30 52 -87
105 -121 114 -12 3 -40 4 -62 2 l-39 -3 4 -285 4 -285 26 -32 c31 -39 53 -41
86 -9 24 24 24 25 18 185 -3 89 -4 161 -1 161 4 0 15 -15 26 -32 10 -18 40
-44 66 -57 45 -23 47 -24 67 -5 12 10 27 32 34 49 12 27 13 14 14 -119 l1
-148 34 -34 c39 -39 54 -42 87 -15 19 15 24 30 25 71 1 28 5 54 8 57 3 3 1 12
-4 19 -6 6 -10 16 -9 20 3 12 -10 298 -17 362 -4 36 -13 62 -31 82 -27 33 -51
37 -98 16z m72 -81 c2 -121 11 -243 17 -254 9 -13 10 -227 1 -241 -9 -14 -55
-13 -60 3 -2 6 -6 110 -9 229 -2 119 -7 222 -11 228 -10 16 -34 -19 -35 -48 0
-13 -7 -36 -15 -50 -8 -15 -21 -44 -29 -64 -12 -30 -20 -38 -39 -38 -40 0 -66
30 -102 120 -19 47 -38 86 -43 88 -13 4 -15 -139 -3 -186 5 -20 6 -90 3 -157
-7 -120 -7 -120 -32 -120 l-25 0 -6 155 c-4 85 -7 210 -8 278 l-1 122 44 0
c36 0 48 -5 65 -26 12 -15 21 -33 21 -40 0 -7 13 -39 28 -71 16 -32 33 -69 39
-83 10 -24 11 -24 18 -5 4 11 15 36 25 55 9 19 21 49 24 65 15 61 37 95 70
104 57 17 61 12 63 -64z m-299 -156 c-7 -4 -6 -14 1 -28 7 -12 8 -21 2 -21
-11 0 -18 22 -20 64 -1 28 0 29 13 11 9 -13 11 -22 4 -26z m362 -350 c0 -5 -7
-9 -16 -9 -8 0 -13 -4 -10 -9 7 -11 -50 -9 -61 3 -4 4 -1 7 7 6 36 -5 50 1 50
21 0 18 2 19 15 9 8 -7 15 -16 15 -21z"/>
<path d="M120 770 c-27 -27 -25 -54 5 -79 27 -20 104 -41 157 -41 l31 0 -8
-215 c-8 -237 -5 -249 53 -279 30 -15 71 -6 73 16 3 44 1 174 -6 312 -6 129
-5 160 6 167 8 5 44 6 81 3 54 -5 73 -3 93 10 31 20 31 36 3 81 -28 43 -44 49
-101 35 -32 -9 -55 -9 -83 -1 -22 6 -94 11 -161 11 -110 0 -125 -2 -143 -20z
m305 -10 c22 -5 60 -5 85 0 49 9 71 0 63 -28 -3 -14 -18 -17 -95 -19 -49 -1
-95 -6 -100 -11 -7 -7 -7 -77 2 -219 7 -114 11 -221 9 -237 -5 -33 -28 -52
-54 -43 -16 7 -17 27 -14 256 2 137 1 252 -3 256 -3 3 -31 2 -62 -4 -42 -8
-66 -7 -94 2 -43 14 -54 43 -21 55 26 10 229 4 284 -8z m175 -50 c-7 -4 -9
-13 -5 -20 6 -9 4 -11 -5 -5 -7 4 -16 2 -21 -6 -7 -12 -12 -11 -26 5 -17 17
-17 18 4 12 16 -5 26 -2 35 13 6 11 16 17 21 14 5 -3 4 -9 -3 -13z"/>
<path d="M500 373 c0 -36 35 -94 61 -100 16 -5 19 -14 19 -65 0 -43 3 -59 13
-56 17 6 29 110 22 186 -7 70 -25 75 -25 6 0 -37 -3 -44 -20 -44 -14 0 -24 13
-37 50 -20 55 -33 65 -33 23z"/>
<path d="M642 388 c-16 -16 -15 -42 3 -103 24 -80 36 -105 52 -105 11 0 13 5
8 18 -30 72 -30 70 -2 96 36 33 46 75 22 93 -23 16 -67 17 -83 1z m68 -36 c0
-16 -28 -52 -40 -52 -5 0 -11 12 -15 27 -5 20 -2 31 10 39 21 15 45 8 45 -14z"/>
<path d="M2465 380 c-3 -11 -3 -29 0 -40 6 -17 2 -20 -29 -20 -20 0 -36 -4
-36 -9 0 -11 25 -21 51 -21 22 0 39 -35 39 -79 0 -34 25 -70 39 -56 6 7 5 24
-5 50 -22 64 -19 73 23 77 24 2 39 9 41 18 2 11 -8 15 -40 15 -42 0 -43 1 -52
43 -11 46 -21 53 -31 22z"/>
<path d="M764 376 c-9 -23 1 -105 14 -118 23 -23 29 3 17 62 -14 68 -21 81
-31 56z"/>
<path d="M992 370 c-28 -17 -33 -25 -30 -53 3 -30 6 -32 38 -31 19 0 43 4 52
8 13 6 19 0 27 -31 26 -92 5 -143 -57 -143 -18 0 -32 -4 -32 -10 0 -18 77 -11
101 9 21 16 24 27 22 73 -1 29 -13 85 -25 123 -26 80 -42 88 -96 55z m58 -22
c0 -19 -31 -48 -52 -48 -23 0 -24 35 0 49 23 14 52 14 52 -1z"/>
<path d="M865 346 c-24 -24 -24 -24 -31 -4 -3 12 -10 16 -15 11 -11 -11 7 -71
27 -92 11 -13 14 -13 17 0 17 59 24 74 37 74 7 0 18 -16 23 -35 12 -50 27 -61
27 -21 0 46 -26 90 -53 91 -4 0 -19 -11 -32 -24z"/>
<path d="M2298 353 c-27 -17 -48 -51 -48 -78 0 -21 45 -47 77 -45 47 3 48 1
13 -35 -33 -34 -35 -59 -2 -39 26 16 62 73 56 89 -4 9 -25 15 -57 17 -44 3
-52 6 -52 23 0 13 13 26 38 39 30 14 36 21 26 32 -14 18 -18 17 -51 -3z"/>
<path d="M2122 326 c-51 -28 -76 -101 -52 -147 13 -24 66 -26 99 -3 23 17 32
12 44 -20 2 -5 8 -6 15 -2 8 5 8 14 2 32 -6 14 -10 43 -10 64 0 63 -51 103
-98 76z m56 -60 c4 -46 -19 -76 -60 -76 -25 0 -28 4 -28 31 0 33 50 94 73 87
6 -3 13 -22 15 -42z"/>
<path d="M2652 330 c-29 -12 -55 -73 -47 -111 12 -55 84 -86 136 -59 35 19 22
33 -24 26 -45 -7 -77 -1 -77 15 0 5 9 9 19 9 26 0 59 30 66 62 5 19 1 32 -14
47 -23 23 -26 24 -59 11z m48 -51 c0 -13 -30 -39 -46 -39 -19 0 -18 35 2 55
12 12 19 13 30 4 8 -6 14 -15 14 -20z"/>
<path d="M2858 293 c-8 -10 -20 -26 -25 -36 -9 -17 -11 -16 -23 12 -12 31 -21
37 -33 25 -8 -9 28 -102 49 -125 27 -30 39 -17 39 42 0 53 0 54 30 54 21 0 29
4 27 15 -7 32 -41 39 -64 13z"/>
</g>
</svg>
